<svg width="176" height="176" viewBox="0 0 176 176" fill="none" xmlns="http://www.w3.org/2000/svg">
<path d="M88 176C136.601 176 176 136.601 176 88C176 39.3989 136.601 0 88 0C39.3989 0 0 39.3989 0 88C0 136.601 39.3989 176 88 176Z" fill="#FFCC4D"/>
<path d="M87.9999 102.667C70.2875 102.667 58.5346 100.604 43.9999 97.7778C40.6804 97.1374 34.2222 97.7778 34.2222 107.556C34.2222 127.111 56.6866 151.556 87.9999 151.556C119.308 151.556 141.778 127.111 141.778 107.556C141.778 97.7778 135.32 97.1325 132 97.7778C117.465 100.604 105.712 102.667 87.9999 102.667Z" fill="#664500"/>
<path d="M44 107.556C44 107.556 58.6667 112.444 88 112.444C117.333 112.444 132 107.556 132 107.556C132 107.556 122.222 127.111 88 127.111C53.7778 127.111 44 107.556 44 107.556Z" fill="white"/>
<path d="M58.6667 83.1111C65.4168 83.1111 70.8889 75.4502 70.8889 66C70.8889 56.5498 65.4168 48.8889 58.6667 48.8889C51.9165 48.8889 46.4445 56.5498 46.4445 66C46.4445 75.4502 51.9165 83.1111 58.6667 83.1111Z" fill="#664500"/>
<path d="M117.333 83.1111C124.083 83.1111 129.556 75.4502 129.556 66C129.556 56.5498 124.083 48.8889 117.333 48.8889C110.583 48.8889 105.111 56.5498 105.111 66C105.111 75.4502 110.583 83.1111 117.333 83.1111Z" fill="#664500"/>
</svg>
