<svg width="176" height="176" viewBox="0 0 176 176" fill="none" xmlns="http://www.w3.org/2000/svg">
<path d="M176 88C176 136.6 136.6 176 88 176C39.3996 176 0 136.6 0 88C0 39.3996 39.3996 0 88 0C136.6 0 176 39.3996 176 88Z" fill="#FFCC4D"/>
<path d="M114.816 141.186C114.762 140.971 109.218 119.778 88.0002 119.778C66.7824 119.778 61.2384 140.971 61.1846 141.186C60.9255 142.228 61.3997 143.293 62.3188 143.846C63.2379 144.393 64.4357 144.266 65.2326 143.552C65.2766 143.513 70.1851 139.333 88.0002 139.333C105.551 139.333 110.572 143.391 110.763 143.552C111.227 143.992 111.833 144.222 112.445 144.222C112.855 144.222 113.271 144.12 113.647 143.909C114.605 143.362 115.085 142.252 114.816 141.186ZM141.778 58.6666C114.625 58.6666 103.635 37.3169 103.18 36.4075C101.973 33.9924 102.95 31.0542 105.365 29.8466C107.776 28.6391 110.704 29.612 111.917 32.0124C112.283 32.7262 120.819 48.8889 141.778 48.8889C144.481 48.8889 146.667 51.0791 146.667 53.7778C146.667 56.4764 144.481 58.6666 141.778 58.6666ZM34.2224 58.6666C31.5237 58.6666 29.3335 56.4764 29.3335 53.7778C29.3335 51.0791 31.5237 48.8889 34.2224 48.8889C59.0726 48.8889 63.5362 33.6355 63.7171 32.9853C64.4259 30.404 67.1002 28.8395 69.6766 29.5191C72.2677 30.1986 73.8371 32.8093 73.1868 35.4102C72.9473 36.3586 66.9975 58.6666 34.2224 58.6666Z" fill="#664500"/>
<path d="M58.6668 97.7778C65.4169 97.7778 70.889 90.1169 70.889 80.6667C70.889 71.2165 65.4169 63.5556 58.6668 63.5556C51.9167 63.5556 46.4446 71.2165 46.4446 80.6667C46.4446 90.1169 51.9167 97.7778 58.6668 97.7778Z" fill="#664500"/>
<path d="M117.333 97.7778C124.083 97.7778 129.556 90.1169 129.556 80.6667C129.556 71.2165 124.083 63.5556 117.333 63.5556C110.583 63.5556 105.111 71.2165 105.111 80.6667C105.111 90.1169 110.583 97.7778 117.333 97.7778Z" fill="#664500"/>
</svg>
