<svg width="176" height="176" viewBox="0 0 176 176" fill="none" xmlns="http://www.w3.org/2000/svg">
<path d="M176 88C176 136.6 136.6 176 88 176C39.4044 176 0 136.6 0 88C0 39.4044 39.4044 0 88 0C136.6 0 176 39.4044 176 88Z" fill="#FFCC4D"/>
<path d="M78.2222 88C76.1738 88 74.2671 86.7044 73.5827 84.656C72.5902 81.7276 68.6107 73.3333 63.5556 73.3333C58.3636 73.3333 54.3253 82.2653 53.5285 84.656C52.6729 87.2129 49.9205 88.6062 47.344 87.7458C44.7822 86.8951 43.3987 84.1231 44.2542 81.5613C44.8653 79.7231 50.6293 63.5556 63.5556 63.5556C76.4818 63.5556 82.2458 79.7231 82.8618 81.5662C83.7173 84.128 82.3338 86.9 79.772 87.7507C79.2538 87.9169 78.7307 88 78.2222 88V88ZM127.111 88C125.063 88 123.156 86.7044 122.476 84.656C121.484 81.7276 117.495 73.3333 112.444 73.3333C107.252 73.3333 103.209 82.2653 102.412 84.656C101.557 87.2129 98.8142 88.6062 96.228 87.7458C93.6711 86.8951 92.2827 84.1231 93.1382 81.5613C93.7542 79.7231 99.5133 63.5556 112.444 63.5556C125.376 63.5556 131.135 79.7231 131.746 81.5662C132.601 84.128 131.218 86.9 128.656 87.7507C128.143 87.9169 127.62 88 127.111 88ZM88 107.556C70.2876 107.556 58.5347 105.492 44 102.667C40.6805 102.026 34.2222 102.667 34.2222 112.444C34.2222 132 56.6867 156.444 88 156.444C119.308 156.444 141.778 132 141.778 112.444C141.778 102.667 135.32 102.021 132 102.667C117.465 105.492 105.712 107.556 88 107.556Z" fill="#664500"/>
<path d="M44 112.444C44 112.444 58.6667 117.333 88 117.333C117.333 117.333 132 112.444 132 112.444C132 112.444 125.429 145.444 88 145.444C50.5707 145.444 44 112.444 44 112.444Z" fill="white"/>
<path d="M88 134.904C70.4196 134.904 57.3369 133.085 49.1969 131.262L45.1636 122.115C49.1871 123.64 64.1765 126.5 88.0049 126.5C112.224 126.5 127.297 123.488 131.34 121.914L127.913 130.92C119.924 132.777 106.309 134.904 88 134.904Z" fill="#664500"/>
</svg>
